REM DIRINDEX 1\2\4\8,1\2\4\9,1\2\4\10,1\2\5\11,1\2\5\12,1\2\5\13,1\2\5\14,1\2\5\15,1\3\6\16,1\3\6\17,1\3\6\18,1\3\7\19,1\3\7\20,1\3\7\21,1\3\7\22,1\3\7\23
REM DIRNAME "folder01","folder02","folder03","folder04","folder05","folder06","folder07","folder08","folder09","folder10","folder11","folder12","folder13","folder14","folder15","folder16","folder17","folder18","folder19","folder20","folder21","folder22","folder23"
TITLE ""
FILE "LR_black_phrase_B01.mp3" MP3
  TRACK 01 AUDIO
    TITLE "0:"
    INDEX 01 00:00:00
  TRACK 02 AUDIO
    TITLE "19:cjc171_12501"
    INDEX 01 00:00:16
  TRACK 03 AUDIO
    TITLE "0:"
    INDEX 01 00:01:37
  TRACK 04 AUDIO
    TITLE "20:cjc171_12502"
    INDEX 01 00:02:01
  TRACK 05 AUDIO
    TITLE "0:"
    INDEX 01 00:04:67
  TRACK 06 AUDIO
    TITLE "21:cjc171_12503"
    INDEX 01 00:05:66
  TRACK 07 AUDIO
    TITLE "0:"
    INDEX 01 00:08:04
  TRACK 08 AUDIO
    TITLE "22:cjc171_12504"
    INDEX 01 00:08:45
  TRACK 09 AUDIO
    TITLE "0:"
    INDEX 01 00:10:28
  TRACK 10 AUDIO
    TITLE "23:cjc171_12505"
    INDEX 01 00:10:58
  TRACK 11 AUDIO
    TITLE "0:"
    INDEX 01 00:12:41
  TRACK 12 AUDIO
    TITLE "19:cjc171_12506"
    INDEX 01 00:13:44
  TRACK 13 AUDIO
    TITLE "0:"
    INDEX 01 00:15:06
  TRACK 14 AUDIO
    TITLE "20:cjc171_12507"
    INDEX 01 00:15:45
  TRACK 15 AUDIO
    TITLE "0:"
    INDEX 01 00:18:12
  TRACK 16 AUDIO
    TITLE "21:cjc171_12508"
    INDEX 01 00:19:12
  TRACK 17 AUDIO
    TITLE "0:"
    INDEX 01 00:21:12
  TRACK 18 AUDIO
    TITLE "22:cjc171_12509"
    INDEX 01 00:21:54
  TRACK 19 AUDIO
    TITLE "0:"
    INDEX 01 00:23:68
  TRACK 20 AUDIO
    TITLE "23:cjc171_12510"
    INDEX 01 00:24:25
  TRACK 21 AUDIO
    TITLE "0:"
    INDEX 01 00:26:39
  TRACK 22 AUDIO
    TITLE "19:cjc171_12511"
    INDEX 01 00:27:42
  TRACK 23 AUDIO
    TITLE "0:"
    INDEX 01 00:28:58
  TRACK 24 AUDIO
    TITLE "20:cjc171_12512"
    INDEX 01 00:29:22
  TRACK 25 AUDIO
    TITLE "0:"
    INDEX 01 00:32:08
  TRACK 26 AUDIO
    TITLE "21:cjc171_12513"
    INDEX 01 00:33:08
  TRACK 27 AUDIO
    TITLE "0:"
    INDEX 01 00:35:28
  TRACK 28 AUDIO
    TITLE "22:cjc171_12514"
    INDEX 01 00:35:58
  TRACK 29 AUDIO
    TITLE "0:"
    INDEX 01 00:38:03
  TRACK 30 AUDIO
    TITLE "23:cjc171_12515"
    INDEX 01 00:38:25
  TRACK 31 AUDIO
    TITLE "0:"
    INDEX 01 00:40:47
  TRACK 32 AUDIO
    TITLE "19:cjc171_12516"
    INDEX 01 00:41:52
  TRACK 33 AUDIO
    TITLE "0:"
    INDEX 01 00:42:56
  TRACK 34 AUDIO
    TITLE "20:cjc171_12517"
    INDEX 01 00:43:20
  TRACK 35 AUDIO
    TITLE "0:"
    INDEX 01 00:45:46
  TRACK 36 AUDIO
    TITLE "21:cjc171_12518"
    INDEX 01 00:46:46
  TRACK 37 AUDIO
    TITLE "0:"
    INDEX 01 00:49:01
  TRACK 38 AUDIO
    TITLE "22:cjc171_12519"
    INDEX 01 00:49:42
  TRACK 39 AUDIO
    TITLE "0:"
    INDEX 01 00:51:66
  TRACK 40 AUDIO
    TITLE "23:cjc171_12520"
    INDEX 01 00:52:23
  TRACK 41 AUDIO
    TITLE "0:"
    INDEX 01 00:54:45
  TRACK 42 AUDIO
    TITLE "19:cjc171_12521"
    INDEX 01 00:55:52
  TRACK 43 AUDIO
    TITLE "0:"
    INDEX 01 00:56:73
  TRACK 44 AUDIO
    TITLE "20:cjc171_12522"
    INDEX 01 00:57:40
  TRACK 45 AUDIO
    TITLE "0:"
    INDEX 01 00:59:19
  TRACK 46 AUDIO
    TITLE "21:cjc171_12523"
    INDEX 01 01:00:16
  TRACK 47 AUDIO
    TITLE "0:"
    INDEX 01 01:02:49
  TRACK 48 AUDIO
    TITLE "22:cjc171_12524"
    INDEX 01 01:03:15
  TRACK 49 AUDIO
    TITLE "0:"
    INDEX 01 01:05:27
  TRACK 50 AUDIO
    TITLE "23:cjc171_12525"
    INDEX 01 01:05:57
  TRACK 51 AUDIO
    TITLE "0:"
    INDEX 01 01:07:69
  TRACK 52 AUDIO
    TITLE "19:cjc171_12526"
    INDEX 01 01:09:00
  TRACK 53 AUDIO
    TITLE "0:"
    INDEX 01 01:10:17
  TRACK 54 AUDIO
    TITLE "20:cjc171_12527"
    INDEX 01 01:10:58
  TRACK 55 AUDIO
    TITLE "0:"
    INDEX 01 01:13:21
  TRACK 56 AUDIO
    TITLE "21:cjc171_12528"
    INDEX 01 01:14:22
  TRACK 57 AUDIO
    TITLE "0:"
    INDEX 01 01:16:00
  TRACK 58 AUDIO
    TITLE "22:cjc171_12529"
    INDEX 01 01:16:39
  TRACK 59 AUDIO
    TITLE "0:"
    INDEX 01 01:19:18
  TRACK 60 AUDIO
    TITLE "23:cjc171_12530"
    INDEX 01 01:19:41
  TRACK 61 AUDIO
    TITLE "0:"
    INDEX 01 01:22:20
  TRACK 62 AUDIO
    TITLE "19:cjc171_12531"
    INDEX 01 01:23:19
  TRACK 63 AUDIO
    TITLE "0:"
    INDEX 01 01:24:50
  TRACK 64 AUDIO
    TITLE "20:cjc171_12532"
    INDEX 01 01:25:14
  TRACK 65 AUDIO
    TITLE "0:"
    INDEX 01 01:26:14
  TRACK 66 AUDIO
    TITLE "21:cjc171_12533"
    INDEX 01 01:27:15
  TRACK 67 AUDIO
    TITLE "0:"
    INDEX 01 01:28:66
  TRACK 68 AUDIO
    TITLE "22:cjc171_12534"
    INDEX 01 01:29:30
  TRACK 69 AUDIO
    TITLE "0:"
    INDEX 01 01:31:17
  TRACK 70 AUDIO
    TITLE "23:cjc171_12535"
    INDEX 01 01:31:46
  TRACK 71 AUDIO
    TITLE "0:"
    INDEX 01 01:33:35
  TRACK 72 AUDIO
    TITLE "19:cjc171_12536"
    INDEX 01 01:34:39
  TRACK 73 AUDIO
    TITLE "0:"
    INDEX 01 01:35:72
  TRACK 74 AUDIO
    TITLE "20:cjc171_12537"
    INDEX 01 01:36:38
  TRACK 75 AUDIO
    TITLE "0:"
    INDEX 01 01:39:13
  TRACK 76 AUDIO
    TITLE "21:cjc171_12538"
    INDEX 01 01:40:12
  TRACK 77 AUDIO
    TITLE "0:"
    INDEX 01 01:42:58
  TRACK 78 AUDIO
    TITLE "22:cjc171_12539"
    INDEX 01 01:43:18
  TRACK 79 AUDIO
    TITLE "0:"
    INDEX 01 01:46:03
  TRACK 80 AUDIO
    TITLE "23:cjc171_12540"
    INDEX 01 01:46:34
  TRACK 81 AUDIO
    TITLE "0:"
    INDEX 01 01:49:19
  TRACK 82 AUDIO
    TITLE "19:cjc171_12541"
    INDEX 01 01:50:30
  TRACK 83 AUDIO
    TITLE "0:"
    INDEX 01 01:51:43
  TRACK 84 AUDIO
    TITLE "20:cjc171_12542"
    INDEX 01 01:52:07
  TRACK 85 AUDIO
    TITLE "0:"
    INDEX 01 01:54:28
  TRACK 86 AUDIO
    TITLE "21:cjc171_12543"
    INDEX 01 01:55:29
  TRACK 87 AUDIO
    TITLE "0:"
    INDEX 01 01:57:46
  TRACK 88 AUDIO
    TITLE "22:cjc171_12544"
    INDEX 01 01:58:12
  TRACK 89 AUDIO
    TITLE "0:"
    INDEX 01 02:00:23
  TRACK 90 AUDIO
    TITLE "23:cjc171_12545"
    INDEX 01 02:00:52
  TRACK 91 AUDIO
    TITLE "0:"
    INDEX 01 02:02:63
  TRACK 92 AUDIO
    TITLE "19:cjc171_12546"
    INDEX 01 02:03:68
  TRACK 93 AUDIO
    TITLE "0:"
    INDEX 01 02:05:24
  TRACK 94 AUDIO
    TITLE "20:cjc171_12547"
    INDEX 01 02:05:57
  TRACK 95 AUDIO
    TITLE "0:"
    INDEX 01 02:07:54
  TRACK 96 AUDIO
    TITLE "21:cjc171_12548"
    INDEX 01 02:08:55
  TRACK 97 AUDIO
    TITLE "0:"
    INDEX 01 02:10:37
  TRACK 98 AUDIO
    TITLE "22:cjc171_12549"
    INDEX 01 02:11:03
  TRACK 99 AUDIO
    TITLE "0:"
    INDEX 01 02:13:13
  TRACK 100 AUDIO
    TITLE "23:cjc171_12550"
    INDEX 01 02:13:37
  TRACK 101 AUDIO
    TITLE "0:"
    INDEX 01 02:15:48
  TRACK 102 AUDIO
    TITLE "19:cjc171_12551"
    INDEX 01 02:16:47
  TRACK 103 AUDIO
    TITLE "0:"
    INDEX 01 02:17:66
  TRACK 104 AUDIO
    TITLE "20:cjc171_12552"
    INDEX 01 02:18:26
  TRACK 105 AUDIO
    TITLE "0:"
    INDEX 01 02:21:11
  TRACK 106 AUDIO
    TITLE "21:cjc171_12553"
    INDEX 01 02:22:10
  TRACK 107 AUDIO
    TITLE "0:"
    INDEX 01 02:24:39
  TRACK 108 AUDIO
    TITLE "22:cjc171_12554"
    INDEX 01 02:25:01
  TRACK 109 AUDIO
    TITLE "0:"
    INDEX 01 02:27:06
  TRACK 110 AUDIO
    TITLE "23:cjc171_12555"
    INDEX 01 02:27:33
  TRACK 111 AUDIO
    TITLE "0:"
    INDEX 01 02:29:38
  TRACK 112 AUDIO
    TITLE "19:cjc171_12556"
    INDEX 01 02:30:41
  TRACK 113 AUDIO
    TITLE "0:"
    INDEX 01 02:31:62
  TRACK 114 AUDIO
    TITLE "20:cjc171_12557"
    INDEX 01 02:32:24
  TRACK 115 AUDIO
    TITLE "0:"
    INDEX 01 02:34:43
  TRACK 116 AUDIO
    TITLE "21:cjc171_12558"
    INDEX 01 02:35:40
  TRACK 117 AUDIO
    TITLE "0:"
    INDEX 01 02:38:02
  TRACK 118 AUDIO
    TITLE "22:cjc171_12559"
    INDEX 01 02:38:37
  TRACK 119 AUDIO
    TITLE "0:"
    INDEX 01 02:40:65
  TRACK 120 AUDIO
    TITLE "23:cjc171_12560"
    INDEX 01 02:41:14
  TRACK 121 AUDIO
    TITLE "0:"
    INDEX 01 02:43:42
  TRACK 122 AUDIO
    TITLE "19:cjc171_12561"
    INDEX 01 02:44:45
  TRACK 123 AUDIO
    TITLE "0:"
    INDEX 01 02:45:66
  TRACK 124 AUDIO
    TITLE "20:cjc171_12562"
    INDEX 01 02:46:27
  TRACK 125 AUDIO
    TITLE "0:"
    INDEX 01 02:48:53
  TRACK 126 AUDIO
    TITLE "21:cjc171_12563"
    INDEX 01 02:49:54
  TRACK 127 AUDIO
    TITLE "0:"
    INDEX 01 02:51:63
  TRACK 128 AUDIO
    TITLE "22:cjc171_12564"
    INDEX 01 02:52:27
  TRACK 129 AUDIO
    TITLE "0:"
    INDEX 01 02:54:63
  TRACK 130 AUDIO
    TITLE "23:cjc171_12565"
    INDEX 01 02:55:18
  TRACK 131 AUDIO
    TITLE "0:"
    INDEX 01 02:57:52
  TRACK 132 AUDIO
    TITLE "19:cjc171_12566"
    INDEX 01 02:58:57
  TRACK 133 AUDIO
    TITLE "0:"
    INDEX 01 02:59:70
  TRACK 134 AUDIO
    TITLE "20:cjc171_12567"
    INDEX 01 03:00:35
  TRACK 135 AUDIO
    TITLE "0:"
    INDEX 01 03:02:45
  TRACK 136 AUDIO
    TITLE "21:cjc171_12568"
    INDEX 01 03:03:45
  TRACK 137 AUDIO
    TITLE "0:"
    INDEX 01 03:05:51
  TRACK 138 AUDIO
    TITLE "22:cjc171_12569"
    INDEX 01 03:06:14
  TRACK 139 AUDIO
    TITLE "0:"
    INDEX 01 03:08:28
  TRACK 140 AUDIO
    TITLE "23:cjc171_12570"
    INDEX 01 03:08:58
  TRACK 141 AUDIO
    TITLE "0:"
    INDEX 01 03:10:70
  TRACK 142 AUDIO
    TITLE "19:cjc171_12571"
    INDEX 01 03:12:01
  TRACK 143 AUDIO
    TITLE "0:"
    INDEX 01 03:13:23
  TRACK 144 AUDIO
    TITLE "20:cjc171_12572"
    INDEX 01 03:13:63
  TRACK 145 AUDIO
    TITLE "0:"
    INDEX 01 03:16:36
  TRACK 146 AUDIO
    TITLE "21:cjc171_12573"
    INDEX 01 03:17:35
  TRACK 147 AUDIO
    TITLE "0:"
    INDEX 01 03:20:06
  TRACK 148 AUDIO
    TITLE "22:cjc171_12574"
    INDEX 01 03:20:47
  TRACK 149 AUDIO
    TITLE "0:"
    INDEX 01 03:23:67
  TRACK 150 AUDIO
    TITLE "23:cjc171_12575"
    INDEX 01 03:24:21
  TRACK 151 AUDIO
    TITLE "0:"
    INDEX 01 03:27:41
  TRACK 152 AUDIO
    TITLE "19:cjc171_12576"
    INDEX 01 03:28:47
  TRACK 153 AUDIO
    TITLE "0:"
    INDEX 01 03:29:69
  TRACK 154 AUDIO
    TITLE "20:cjc171_12577"
    INDEX 01 03:30:32
  TRACK 155 AUDIO
    TITLE "0:"
    INDEX 01 03:32:07
  TRACK 156 AUDIO
    TITLE "21:cjc171_12578"
    INDEX 01 03:33:07
  TRACK 157 AUDIO
    TITLE "0:"
    INDEX 01 03:35:35
  TRACK 158 AUDIO
    TITLE "22:cjc171_12579"
    INDEX 01 03:35:68
  TRACK 159 AUDIO
    TITLE "0:"
    INDEX 01 03:38:16
  TRACK 160 AUDIO
    TITLE "23:cjc171_12580"
    INDEX 01 03:38:47
  TRACK 161 AUDIO
    TITLE "0:"
    INDEX 01 03:40:69
  TRACK 162 AUDIO
    TITLE "19:cjc171_12581"
    INDEX 01 03:42:09
  TRACK 163 AUDIO
    TITLE "0:"
    INDEX 01 03:43:25
  TRACK 164 AUDIO
    TITLE "20:cjc171_12582"
    INDEX 01 03:43:56
  TRACK 165 AUDIO
    TITLE "0:"
    INDEX 01 03:45:25
  TRACK 166 AUDIO
    TITLE "21:cjc171_12583"
    INDEX 01 03:46:25
  TRACK 167 AUDIO
    TITLE "0:"
    INDEX 01 03:48:37
  TRACK 168 AUDIO
    TITLE "22:cjc171_12584"
    INDEX 01 03:48:69
  TRACK 169 AUDIO
    TITLE "0:"
    INDEX 01 03:50:72
  TRACK 170 AUDIO
    TITLE "23:cjc171_12585"
    INDEX 01 03:51:16
  TRACK 171 AUDIO
    TITLE "0:"
    INDEX 01 03:53:19
  TRACK 172 AUDIO
    TITLE "19:cjc171_12586"
    INDEX 01 03:54:19
  TRACK 173 AUDIO
    TITLE "0:"
    INDEX 01 03:55:18
  TRACK 174 AUDIO
    TITLE "20:cjc171_12587"
    INDEX 01 03:55:57
  TRACK 175 AUDIO
    TITLE "0:"
    INDEX 01 03:57:07
  TRACK 176 AUDIO
    TITLE "21:cjc171_12588"
    INDEX 01 03:58:07
  TRACK 177 AUDIO
    TITLE "0:"
    INDEX 01 04:00:54
  TRACK 178 AUDIO
    TITLE "22:cjc171_12589"
    INDEX 01 04:01:11
  TRACK 179 AUDIO
    TITLE "0:"
    INDEX 01 04:04:44
  TRACK 180 AUDIO
    TITLE "23:cjc171_12590"
    INDEX 01 04:04:66
  TRACK 181 AUDIO
    TITLE "0:"
    INDEX 01 04:08:24
  TRACK 182 AUDIO
    TITLE "19:cjc171_12591"
    INDEX 01 04:09:30
  TRACK 183 AUDIO
    TITLE "0:"
    INDEX 01 04:10:53
  TRACK 184 AUDIO
    TITLE "20:cjc171_12592"
    INDEX 01 04:11:17
  TRACK 185 AUDIO
    TITLE "0:"
    INDEX 01 04:13:35
  TRACK 186 AUDIO
    TITLE "21:cjc171_12593"
    INDEX 01 04:14:37
  TRACK 187 AUDIO
    TITLE "0:"
    INDEX 01 04:16:06
  TRACK 188 AUDIO
    TITLE "22:cjc171_12594"
    INDEX 01 04:16:48
  TRACK 189 AUDIO
    TITLE "0:"
    INDEX 01 04:18:54
  TRACK 190 AUDIO
    TITLE "23:cjc171_12595"
    INDEX 01 04:19:09
  TRACK 191 AUDIO
    TITLE "0:"
    INDEX 01 04:21:17
  TRACK 192 AUDIO
    TITLE "19:cjc171_12596"
    INDEX 01 04:22:23
  TRACK 193 AUDIO
    TITLE "0:"
    INDEX 01 04:23:40
  TRACK 194 AUDIO
    TITLE "20:cjc171_12597"
    INDEX 01 04:24:06
  TRACK 195 AUDIO
    TITLE "0:"
    INDEX 01 04:26:48
  TRACK 196 AUDIO
    TITLE "21:cjc171_12598"
    INDEX 01 04:27:47
  TRACK 197 AUDIO
    TITLE "0:"
    INDEX 01 04:29:60
  TRACK 198 AUDIO
    TITLE "22:cjc171_12599"
    INDEX 01 04:30:24
  TRACK 199 AUDIO
    TITLE "0:"
    INDEX 01 04:32:41
  TRACK 200 AUDIO
    TITLE "23:cjc171_12600"
    INDEX 01 04:32:70
  TRACK 201 AUDIO
    TITLE "0:"
    INDEX 01 04:35:12
  TRACK 202 AUDIO
    TITLE "19:cjc171_12601"
    INDEX 01 04:36:15
  TRACK 203 AUDIO
    TITLE "0:"
    INDEX 01 04:37:32
  TRACK 204 AUDIO
    TITLE "20:cjc171_12602"
    INDEX 01 04:37:73
  TRACK 205 AUDIO
    TITLE "0:"
    INDEX 01 04:40:17
  TRACK 206 AUDIO
    TITLE "21:cjc171_12603"
    INDEX 01 04:41:16
  TRACK 207 AUDIO
    TITLE "0:"
    INDEX 01 04:43:64
  TRACK 208 AUDIO
    TITLE "22:cjc171_12604"
    INDEX 01 04:44:28
  TRACK 209 AUDIO
    TITLE "0:"
    INDEX 01 04:46:55
  TRACK 210 AUDIO
    TITLE "23:cjc171_12605"
    INDEX 01 04:47:07
  TRACK 211 AUDIO
    TITLE "0:"
    INDEX 01 04:49:29
  TRACK 212 AUDIO
    TITLE "19:cjc171_12606"
    INDEX 01 04:50:35
  TRACK 213 AUDIO
    TITLE "0:"
    INDEX 01 04:51:54
  TRACK 214 AUDIO
    TITLE "20:cjc171_12607"
    INDEX 01 04:52:20
  TRACK 215 AUDIO
    TITLE "0:"
    INDEX 01 04:53:64
  TRACK 216 AUDIO
    TITLE "21:cjc171_12608"
    INDEX 01 04:54:64
  TRACK 217 AUDIO
    TITLE "0:"
    INDEX 01 04:57:05
  TRACK 218 AUDIO
    TITLE "22:cjc171_12609"
    INDEX 01 04:57:50
  TRACK 219 AUDIO
    TITLE "0:"
    INDEX 01 04:59:43
  TRACK 220 AUDIO
    TITLE "23:cjc171_12610"
    INDEX 01 05:00:00
  TRACK 221 AUDIO
    TITLE "0:"
    INDEX 01 05:01:72
  TRACK 222 AUDIO
    TITLE "19:cjc171_12611"
    INDEX 01 05:03:02
  TRACK 223 AUDIO
    TITLE "0:"
    INDEX 01 05:04:25
  TRACK 224 AUDIO
    TITLE "20:cjc171_12612"
    INDEX 01 05:04:64
  TRACK 225 AUDIO
    TITLE "0:"
    INDEX 01 05:06:32
  TRACK 226 AUDIO
    TITLE "21:cjc171_12613"
    INDEX 01 05:07:29
  TRACK 227 AUDIO
    TITLE "0:"
    INDEX 01 05:09:16
  TRACK 228 AUDIO
    TITLE "22:cjc171_12614"
    INDEX 01 05:09:54
  TRACK 229 AUDIO
    TITLE "0:"
    INDEX 01 05:11:52
  TRACK 230 AUDIO
    TITLE "23:cjc171_12615"
    INDEX 01 05:12:17
  TRACK 231 AUDIO
    TITLE "0:"
    INDEX 01 05:14:23
  TRACK 232 AUDIO
    TITLE "19:cjc171_12616"
    INDEX 01 05:15:25
  TRACK 233 AUDIO
    TITLE "0:"
    INDEX 01 05:16:54
  TRACK 234 AUDIO
    TITLE "20:cjc171_12617"
    INDEX 01 05:17:16
  TRACK 235 AUDIO
    TITLE "0:"
    INDEX 01 05:20:20
  TRACK 236 AUDIO
    TITLE "21:cjc171_12618"
    INDEX 01 05:21:20
  TRACK 237 AUDIO
    TITLE "0:"
    INDEX 01 05:23:58
  TRACK 238 AUDIO
    TITLE "22:cjc171_12619"
    INDEX 01 05:24:22
  TRACK 239 AUDIO
    TITLE "0:"
    INDEX 01 05:26:56
  TRACK 240 AUDIO
    TITLE "23:cjc171_12620"
    INDEX 01 05:27:08
  TRACK 241 AUDIO
    TITLE "0:"
    INDEX 01 05:29:43
  TRACK 242 AUDIO
    TITLE "19:cjc171_12621"
    INDEX 01 05:30:46
  TRACK 243 AUDIO
    TITLE "0:"
    INDEX 01 05:31:63
  TRACK 244 AUDIO
    TITLE "20:cjc171_12622"
    INDEX 01 05:32:33
  TRACK 245 AUDIO
    TITLE "0:"
    INDEX 01 05:35:12
  TRACK 246 AUDIO
    TITLE "21:cjc171_12623"
    INDEX 01 05:36:09
  TRACK 247 AUDIO
    TITLE "0:"
    INDEX 01 05:37:66
  TRACK 248 AUDIO
    TITLE "22:cjc171_12624"
    INDEX 01 05:38:30
  TRACK 249 AUDIO
    TITLE "0:"
    INDEX 01 05:40:37
  TRACK 250 AUDIO
    TITLE "23:cjc171_12625"
    INDEX 01 05:40:64
  TRACK 251 AUDIO
    TITLE "0:"
    INDEX 01 05:42:71
  TRACK 252 AUDIO
    TITLE "19:cjc171_12626"
    INDEX 01 05:44:01
  TRACK 253 AUDIO
    TITLE "0:"
    INDEX 01 05:45:22
  TRACK 254 AUDIO
    TITLE "20:cjc171_12627"
    INDEX 01 05:45:61
  TRACK 255 AUDIO
    TITLE "0:"
    INDEX 01 05:47:21
  TRACK 256 AUDIO
    TITLE "21:cjc171_12628"
    INDEX 01 05:48:22
  TRACK 257 AUDIO
    TITLE "0:"
    INDEX 01 05:50:74
  TRACK 258 AUDIO
    TITLE "22:cjc171_12629"
    INDEX 01 05:51:40
  TRACK 259 AUDIO
    TITLE "0:"
    INDEX 01 05:54:01
  TRACK 260 AUDIO
    TITLE "23:cjc171_12630"
    INDEX 01 05:54:33
  TRACK 261 AUDIO
    TITLE "0:"
    INDEX 01 05:56:71
  TRACK 262 AUDIO
    TITLE "19:cjc171_12631"
    INDEX 01 05:57:74
  TRACK 263 AUDIO
    TITLE "0:"
    INDEX 01 05:59:14
  TRACK 264 AUDIO
    TITLE "20:cjc171_12632"
    INDEX 01 05:59:53
  TRACK 265 AUDIO
    TITLE "0:"
    INDEX 01 06:02:01
  TRACK 266 AUDIO
    TITLE "21:cjc171_12633"
    INDEX 01 06:03:02
  TRACK 267 AUDIO
    TITLE "0:"
    INDEX 01 06:04:74
  TRACK 268 AUDIO
    TITLE "22:cjc171_12634"
    INDEX 01 06:05:36
  TRACK 269 AUDIO
    TITLE "0:"
    INDEX 01 06:07:28
  TRACK 270 AUDIO
    TITLE "23:cjc171_12635"
    INDEX 01 06:07:57
  TRACK 271 AUDIO
    TITLE "0:"
    INDEX 01 06:09:48
  TRACK 272 AUDIO
    TITLE "19:cjc171_12636"
    INDEX 01 06:10:51
  TRACK 273 AUDIO
    TITLE "0:"
    INDEX 01 06:12:07
  TRACK 274 AUDIO
    TITLE "20:cjc171_12637"
    INDEX 01 06:12:46
  TRACK 275 AUDIO
    TITLE "0:"
    INDEX 01 06:14:49
  TRACK 276 AUDIO
    TITLE "21:cjc171_12638"
    INDEX 01 06:15:45
  TRACK 277 AUDIO
    TITLE "0:"
    INDEX 01 06:18:14
  TRACK 278 AUDIO
    TITLE "22:cjc171_12639"
    INDEX 01 06:18:55
  TRACK 279 AUDIO
    TITLE "0:"
    INDEX 01 06:21:47
  TRACK 280 AUDIO
    TITLE "23:cjc171_12640"
    INDEX 01 06:22:02
  TRACK 281 AUDIO
    TITLE "0:"
    INDEX 01 06:24:69
  TRACK 282 AUDIO
    TITLE "19:cjc171_12641"
    INDEX 01 06:25:74
  TRACK 283 AUDIO
    TITLE "0:"
    INDEX 01 06:27:24
  TRACK 284 AUDIO
    TITLE "20:cjc171_12642"
    INDEX 01 06:27:65
  TRACK 285 AUDIO
    TITLE "0:"
    INDEX 01 06:29:27
  TRACK 286 AUDIO
    TITLE "21:cjc171_12643"
    INDEX 01 06:30:25
  TRACK 287 AUDIO
    TITLE "0:"
    INDEX 01 06:32:53
  TRACK 288 AUDIO
    TITLE "22:cjc171_12644"
    INDEX 01 06:33:17
  TRACK 289 AUDIO
    TITLE "0:"
    INDEX 01 06:35:57
  TRACK 290 AUDIO
    TITLE "23:cjc171_12645"
    INDEX 01 06:36:12
  TRACK 291 AUDIO
    TITLE "0:"
    INDEX 01 06:38:54
  TRACK 292 AUDIO
    TITLE "19:cjc171_12646"
    INDEX 01 06:39:57
  TRACK 293 AUDIO
    TITLE "0:"
    INDEX 01 06:40:72
  TRACK 294 AUDIO
    TITLE "20:cjc171_12647"
    INDEX 01 06:41:36
  TRACK 295 AUDIO
    TITLE "0:"
    INDEX 01 06:42:47
  TRACK 296 AUDIO
    TITLE "21:cjc171_12648"
    INDEX 01 06:43:47
  TRACK 297 AUDIO
    TITLE "0:"
    INDEX 01 06:46:10
  TRACK 298 AUDIO
    TITLE "22:cjc171_12649"
    INDEX 01 06:46:49
  TRACK 299 AUDIO
    TITLE "0:"
    INDEX 01 06:49:06
  TRACK 300 AUDIO
    TITLE "23:cjc171_12650"
    INDEX 01 06:49:34
  TRACK 301 AUDIO
    TITLE "0:"
    INDEX 01 06:51:66
